<svg width="30" height="28" viewBox="0 0 30 28" fill="none" xmlns="http://www.w3.org/2000/svg">
<path d="M3.45703 4.69766C2.84766 4.87266 2.51953 5.27734 2.51953 5.85156C2.51953 6.31094 2.83008 6.73203 3.29297 6.9125C3.48633 6.98906 4.44727 7 11.8828 7H20.25L20.5605 6.85781C21.3047 6.50781 21.4688 5.66016 20.9062 5.06406C20.4902 4.62109 21.1348 4.64844 11.8418 4.65391C7.3125 4.65391 3.53906 4.67578 3.45703 4.69766Z" fill="black"/>
<path d="M3.15821 12.9773C2.75977 13.1742 2.55469 13.4859 2.53126 13.9344C2.50782 14.3883 2.6543 14.6891 3.04102 14.9516L3.29298 15.1211H14.9941H26.6953L26.9121 14.9844C27.0352 14.9078 27.2051 14.7492 27.293 14.6344C27.4336 14.443 27.4512 14.3664 27.4512 13.9945C27.4512 13.6063 27.4336 13.5516 27.2695 13.3383C27.1641 13.207 26.9707 13.043 26.8301 12.9773L26.584 12.8516H15H3.41602L3.15821 12.9773Z" fill="black"/>
<path d="M3.28125 21.0875C2.82422 21.2734 2.51953 21.6945 2.51953 22.1484C2.51953 22.6297 2.74219 22.9797 3.19336 23.2039L3.42773 23.3242H9.375H15.3223L15.5859 23.1875C15.9785 22.9797 16.1895 22.6625 16.2188 22.2359C16.248 21.8477 16.1367 21.5797 15.8379 21.3172C15.4629 20.9836 15.791 21 9.36328 21C4.24219 21.0055 3.45703 21.0164 3.28125 21.0875Z" fill="black"/>
</svg>
